<svg width="1138" height="256" viewBox="0 0 1138 256" fill="none" xmlns="http://www.w3.org/2000/svg">
<path d="M0.828019 198.131L8.09811 217.205L27.172 209.935L19.9019 190.861L0.828019 198.131ZM339.234 232.261L340.299 234.522L339.234 232.261ZM901.344 175.806L902.725 177.89L901.344 175.806ZM1134.82 95.9622L1137.43 75.7168L1117.18 73.1113L1114.57 93.3568L1134.82 95.9622ZM615.011 3.25172L615.165 0.7565L615.011 3.25172ZM829.081 164.035L827.601 166.049L829.081 164.035ZM14 204.033L12.9778 206.315C46.0559 221.136 102.011 240.307 162.556 249.739C223.04 259.161 288.495 258.925 340.299 234.522L339.234 232.261L338.169 229.999C287.703 253.771 223.44 254.163 163.325 244.798C103.27 235.443 47.7429 216.413 15.0222 201.752L14 204.033ZM339.234 232.261L340.299 234.522C366.028 222.403 387.993 201.31 408.446 176.883C428.853 152.51 448.074 124.403 467.941 98.4055C507.95 46.0532 550.922 1.78762 614.856 5.74694L615.011 3.25172L615.165 0.7565C548.367 -3.3802 503.928 43.0817 463.969 95.3695C443.853 121.692 424.951 149.383 404.612 173.673C384.32 197.908 362.916 218.342 338.169 229.999L339.234 232.261ZM829.081 164.035L827.601 166.049C852.605 184.421 879.496 193.282 902.725 177.89L901.344 175.806L899.963 173.722C879.515 187.271 855.162 180.095 830.562 162.02L829.081 164.035ZM901.344 175.806L902.725 177.89C919.495 166.777 938.978 151.589 959.37 136.149C979.813 120.669 1001.22 104.894 1022.01 92.4447C1042.84 79.97 1062.8 70.9881 1080.36 68.8619C1097.74 66.7579 1112.67 71.3554 1124.02 86.0645L1126 84.5368L1127.98 83.0091C1115.36 66.6679 1098.57 61.621 1079.76 63.8982C1061.13 66.1531 1040.44 75.5779 1019.44 88.1551C998.395 100.758 976.798 116.68 956.351 132.162C935.853 147.684 916.562 162.723 899.963 173.722L901.344 175.806ZM615.011 3.25172L614.856 5.74694C659.581 8.51665 694.096 34.5917 726.881 67.213C743.301 83.5518 759.068 101.298 775.553 118.57C791.971 135.772 808.981 152.369 827.601 166.049L829.081 164.035L830.562 162.02C812.3 148.602 795.53 132.258 779.17 115.117C762.875 98.0449 746.865 80.0438 730.408 63.6687C697.437 30.8623 661.799 3.64446 615.165 0.7565L615.011 3.25172Z" fill="#007AFC"/>
</svg>
