<svg width="194" height="44" viewBox="0 0 194 44" fill="none" xmlns="http://www.w3.org/2000/svg">
<g clip-path="url(#clip0_111_4395)">
<path d="M29.9938 1.59806L27.3158 4.20498C26.3568 5.13782 25.0203 5.57147 23.6839 5.41515C22.4545 5.27397 21.1793 5.26388 19.8785 5.41011C11.6762 6.32783 5.3816 13.3116 5.3663 21.4752C5.3663 22.7358 5.50912 23.9662 5.78458 25.1511L1.48446 29.3313C0.53058 26.921 0.0102815 24.304 7.95977e-05 21.5609C-0.0305262 10.4021 8.76864 0.927417 20.0214 0.065166C23.5665 -0.207124 26.9536 0.36771 29.9938 1.59806Z" fill="white"/>
<path d="M25.8912 8.94097L27.7108 10.8279L6.89828 30.4404C5.64665 31.6199 3.66341 31.573 2.47024 30.3357L1.22076 29.0401L22.6314 8.86391C23.5508 7.99757 25.0113 8.02854 25.8912 8.94097Z" fill="white"/>
<path d="M41.1393 14.3507L36.9106 18.5964C37.3646 20.4117 37.5125 22.3479 37.283 24.3498C36.3546 32.458 29.2898 38.6803 21.0313 38.6954C20.7048 38.6954 20.3835 38.6853 20.0672 38.6702C18.2054 38.5643 16.3843 39.2198 15.0734 40.5359L13.084 42.5327C15.5171 43.4756 18.1645 43.9899 20.9395 44C32.2279 44.0303 41.8126 35.3321 42.6849 24.2086C42.9604 20.7041 42.3788 17.356 41.1342 14.3507H41.1393Z" fill="white"/>
<path d="M17.1076 34.8223L15.2861 33.0217L35.8492 12.6947C36.8447 11.7106 38.4643 11.707 39.4634 12.6947L41.1514 14.3633L20.4513 34.8258C19.5279 35.7386 18.031 35.735 17.1112 34.8258L17.1076 34.8223Z" fill="white"/>
<path d="M18.4922 14.3441L14.9971 17.7991L26.1533 28.8272L29.6484 25.3722L18.4922 14.3441Z" fill="white"/>
<path d="M56.6208 23.9161C55.4119 23.427 54.4478 22.706 53.7286 21.7479C53.0042 20.7898 52.6267 19.6351 52.5859 18.2888H57.9879C58.0644 19.0502 58.3347 19.6301 58.7887 20.0335C59.2427 20.4369 59.8344 20.6335 60.569 20.6335C61.3035 20.6335 61.9156 20.4621 62.3492 20.1192C62.7828 19.7763 63.0021 19.3023 63.0021 18.6972C63.0021 18.188 62.8287 17.7694 62.4818 17.4366C62.1349 17.1038 61.7116 16.8316 61.2066 16.6147C60.7016 16.3979 59.9874 16.1559 59.054 15.8836C57.7073 15.4752 56.6106 15.0617 55.7587 14.6532C54.9069 14.2448 54.1774 13.6347 53.5653 12.8329C52.9532 12.0312 52.6472 10.9874 52.6472 9.69656C52.6472 7.78044 53.3511 6.28285 54.7538 5.19369C56.1566 4.10453 57.9879 3.56499 60.2425 3.56499C62.4971 3.56499 64.3845 4.10453 65.7923 5.19369C67.1951 6.27781 67.945 7.78549 68.047 9.72177H62.5583C62.5175 9.05617 62.2727 8.5368 61.8136 8.15358C61.3545 7.77036 60.773 7.57875 60.064 7.57875C59.4518 7.57875 58.957 7.7401 58.5796 8.06282C58.2021 8.38553 58.0134 8.84943 58.0134 9.45452C58.0134 10.1201 58.3296 10.6395 58.9621 11.0076C59.5947 11.3807 60.5843 11.7791 61.9309 12.2127C63.2776 12.6615 64.3692 13.0951 65.2057 13.5036C66.0423 13.912 66.7717 14.5121 67.3889 15.2886C68.0011 16.0702 68.3071 17.0786 68.3071 18.309C68.3071 19.5393 68.0062 20.5478 67.4043 21.5059C66.8023 22.4639 65.925 23.2253 64.7773 23.7951C63.6295 24.3599 62.2727 24.6422 60.7118 24.6422C59.1509 24.6422 57.8246 24.4002 56.6208 23.9111V23.9161Z" fill="white"/>
<path d="M75.8874 23.301C74.2551 22.4035 72.9595 21.1479 72.0005 19.5343C71.0415 17.9208 70.562 16.1055 70.562 14.0936C70.562 12.0817 71.0415 10.2715 72.0005 8.66797C72.9595 7.06448 74.2551 5.81397 75.8874 4.91642C77.5197 4.01887 79.3153 3.5701 81.274 3.5701C83.2328 3.5701 85.0284 4.01887 86.6556 4.91642C88.2879 5.81397 89.5733 7.06448 90.5119 8.66797C91.4505 10.2715 91.9198 12.0817 91.9198 14.0936C91.9198 16.1055 91.4454 17.9208 90.4966 19.5343C89.5478 21.1479 88.2624 22.4035 86.6403 23.301C85.0182 24.1986 83.2277 24.6473 81.2689 24.6473C79.3102 24.6473 77.5146 24.1986 75.8823 23.301H75.8874ZM85.263 18.4301C86.2628 17.3359 86.7627 15.8887 86.7627 14.0885C86.7627 12.2884 86.2628 10.8211 85.263 9.73696C84.2632 8.65284 82.937 8.10826 81.274 8.10826C79.6111 8.10826 78.2543 8.64276 77.2545 9.71679C76.2547 10.7908 75.7548 12.2481 75.7548 14.0885C75.7548 15.929 76.2547 17.356 77.2545 18.4452C78.2543 19.5293 79.5907 20.0739 81.274 20.0739C82.9574 20.0739 84.2632 19.5293 85.263 18.4301Z" fill="white"/>
<path d="M108.299 3.85745V7.87625H99.816V12.2178H106.167V16.1155H99.816V24.4456H94.7456V3.85745H108.304H108.299Z" fill="white"/>
<path d="M125.948 3.85752V7.87631H120.429V24.4456H115.359V7.87127H109.839V3.85248H125.948V3.85752Z" fill="white"/>
<path d="M152.825 3.85745V24.4456H147.75V15.9693H139.858V24.4456H134.788V3.85745H139.858V11.9203H147.75V3.85745H152.825Z" fill="white"/>
<path d="M161.456 3.85745V16.176C161.456 17.4064 161.762 18.3544 162.374 19.02C162.986 19.6856 163.889 20.0184 165.072 20.0184C166.256 20.0184 167.169 19.6856 167.801 19.02C168.434 18.3544 168.75 17.4064 168.75 16.176V3.85745H173.826V16.1458C173.826 17.9863 173.428 19.5393 172.637 20.81C171.847 22.0807 170.786 23.0387 169.449 23.6842C168.113 24.3296 166.623 24.6523 164.986 24.6523C163.348 24.6523 161.874 24.3346 160.578 23.6993C159.283 23.064 158.258 22.1059 157.508 20.8251C156.758 19.5444 156.38 17.9863 156.38 16.1458V3.85745H161.451H161.456Z" fill="white"/>
<path d="M192.903 15.6617C193.633 16.5895 194 17.6484 194 18.8435C194 20.5629 193.393 21.9244 192.174 22.9329C190.955 23.9413 189.261 24.4456 187.088 24.4456H177.386V3.85745H186.762C188.879 3.85745 190.537 4.33648 191.73 5.29454C192.924 6.25259 193.526 7.55353 193.526 9.19231C193.526 10.4025 193.204 11.411 192.562 12.2127C191.919 13.0145 191.062 13.5691 189.996 13.8817C191.2 14.1389 192.169 14.7289 192.903 15.6567V15.6617ZM182.462 12.1825H185.782C186.614 12.1825 187.251 12.0009 187.695 11.6379C188.139 11.2799 188.364 10.7454 188.364 10.0394C188.364 9.3335 188.139 8.79396 187.695 8.42587C187.251 8.05273 186.614 7.86616 185.782 7.86616H182.462V12.1774V12.1825ZM188.175 19.8217C188.639 19.4385 188.874 18.8889 188.874 18.1627C188.874 17.4366 188.629 16.8719 188.149 16.4635C187.665 16.055 186.996 15.8483 186.145 15.8483H182.467V20.3915H186.206C187.058 20.3915 187.716 20.1999 188.18 19.8217H188.175Z" fill="white"/>
<path d="M58.7226 33.1689C59.1612 33.3908 59.4979 33.7034 59.7326 34.1219C59.9672 34.5354 60.0845 35.0296 60.0845 35.5993C60.0845 36.1691 59.9672 36.6532 59.7326 37.0667C59.4979 37.4802 59.1612 37.7928 58.7226 38.0096C58.2839 38.2264 57.7534 38.3374 57.1413 38.3374H55.4937V32.8462H57.1413C57.7585 32.8462 58.2839 32.9571 58.7226 33.174V33.1689ZM58.9113 37.2734C59.3143 36.8751 59.5183 36.3154 59.5183 35.5943C59.5183 34.8732 59.3143 34.3085 58.9113 33.9001C58.5083 33.4916 57.9166 33.2899 57.1413 33.2899H56.0548V37.8684H57.1413C57.9166 37.8684 58.5032 37.6667 58.9113 37.2684V37.2734Z" fill="white"/>
<path d="M62.6911 33.1135C62.6094 33.0328 62.5737 32.937 62.5737 32.821C62.5737 32.705 62.6145 32.6092 62.6911 32.5336C62.7727 32.4579 62.8645 32.4176 62.9767 32.4176C63.0889 32.4176 63.1807 32.4579 63.2624 32.5336C63.344 32.6092 63.3797 32.705 63.3797 32.821C63.3797 32.937 63.3389 33.0328 63.2624 33.1135C63.1807 33.1941 63.0889 33.2294 62.9767 33.2294C62.8645 33.2294 62.7676 33.1891 62.6911 33.1135ZM63.2522 34.0413V38.3323H62.6962V34.0413H63.2522Z" fill="white"/>
<path d="M68.991 34.2631C69.292 34.4497 69.5113 34.6917 69.644 34.9791V34.0463H70.2V38.4483C70.2 38.8416 70.1133 39.1895 69.9398 39.4921C69.7664 39.7946 69.5266 40.0316 69.2206 40.193C68.9145 40.3594 68.5626 40.44 68.1698 40.44C67.6138 40.44 67.1496 40.3089 66.7823 40.0467C66.4151 39.7845 66.1855 39.4265 66.0937 38.9777H66.6446C66.7415 39.2752 66.9201 39.5122 67.1904 39.6938C67.4557 39.8702 67.7872 39.961 68.1698 39.961C68.4503 39.961 68.7003 39.9005 68.9247 39.7845C69.1492 39.6685 69.3226 39.4921 69.4501 39.2601C69.5777 39.0282 69.6389 38.7559 69.6389 38.4432V37.3843C69.5011 37.6768 69.2818 37.9188 68.9808 38.1104C68.6799 38.3021 68.3279 38.3979 67.9198 38.3979C67.5118 38.3979 67.1649 38.3071 66.8486 38.1205C66.5324 37.939 66.2875 37.6768 66.109 37.344C65.9305 37.0112 65.8438 36.6229 65.8438 36.1792C65.8438 35.7355 65.9305 35.3522 66.109 35.0194C66.2875 34.6866 66.5324 34.4295 66.8486 34.248C67.1649 34.0664 67.522 33.9757 67.9198 33.9757C68.3177 33.9757 68.685 34.0715 68.9859 34.258L68.991 34.2631ZM69.4297 35.2716C69.2869 35.0094 69.0931 34.8077 68.8431 34.6665C68.5983 34.5253 68.3228 34.4547 68.027 34.4547C67.7311 34.4547 67.4455 34.5253 67.2006 34.6614C66.9558 34.7976 66.767 34.9942 66.6242 35.2564C66.4814 35.5136 66.4151 35.8212 66.4151 36.1792C66.4151 36.5372 66.4865 36.8398 66.6242 37.102C66.7619 37.3642 66.9558 37.5659 67.2006 37.707C67.4455 37.8482 67.7209 37.9138 68.027 37.9138C68.333 37.9138 68.5932 37.8432 68.8431 37.702C69.088 37.5608 69.2818 37.3591 69.4297 37.0969C69.5726 36.8347 69.644 36.5322 69.644 36.1842C69.644 35.8363 69.5726 35.5338 69.4297 35.2716Z" fill="white"/>
<path d="M73.7856 34.5052V37.1675C73.7856 37.4297 73.8366 37.6113 73.9386 37.7121C74.0406 37.813 74.2192 37.8634 74.4691 37.8634H74.9792V38.3374H74.3824C73.9896 38.3374 73.6989 38.2466 73.5101 38.0651C73.3214 37.8836 73.2245 37.5861 73.2245 37.1726V34.5102H72.6226V34.0463H73.2245V32.9723H73.7907V34.0463H74.9843V34.5102H73.7907L73.7856 34.5052Z" fill="white"/>
<path d="M77.4889 35.0194C77.6674 34.6866 77.9123 34.4295 78.2285 34.248C78.5448 34.0664 78.9019 33.9757 79.2997 33.9757C79.6976 33.9757 80.07 34.0715 80.3709 34.258C80.6719 34.4446 80.8861 34.6867 81.0188 34.9791V34.0362H81.5748V38.3273H81.0188V37.3743C80.881 37.6667 80.6617 37.9087 80.3607 38.1004C80.0598 38.292 79.7027 38.3878 79.2895 38.3878C78.8968 38.3878 78.5448 38.297 78.2285 38.1104C77.9123 37.9289 77.6674 37.6667 77.4889 37.3339C77.3104 37.0011 77.2236 36.6128 77.2236 36.1691C77.2236 35.7254 77.3104 35.3422 77.4889 35.0094V35.0194ZM80.7994 35.2716C80.6566 35.0094 80.4627 34.8077 80.2128 34.6665C79.968 34.5253 79.6925 34.4547 79.3966 34.4547C79.1008 34.4547 78.8151 34.5253 78.5703 34.6614C78.3254 34.7976 78.1367 34.9942 77.9939 35.2564C77.8562 35.5136 77.7847 35.8212 77.7847 36.1792C77.7847 36.5372 77.8562 36.8398 77.9939 37.102C78.1367 37.3642 78.3254 37.5659 78.5703 37.707C78.8151 37.8482 79.0906 37.9138 79.3966 37.9138C79.7027 37.9138 79.9629 37.8432 80.2128 37.702C80.4576 37.5608 80.6515 37.3591 80.7994 37.0969C80.9422 36.8347 81.0137 36.5322 81.0137 36.1842C81.0137 35.8363 80.9422 35.5338 80.7994 35.2716Z" fill="white"/>
<path d="M84.9925 32.5185V38.3324H84.4365V32.5185H84.9925Z" fill="white"/>
<path d="M92.3276 38.1962C92.0522 38.0701 91.8328 37.8936 91.6696 37.6718C91.5115 37.4448 91.4248 37.1927 91.4146 36.9154H92.0012C92.0267 37.1826 92.1491 37.4146 92.3582 37.6163C92.5674 37.818 92.8785 37.9188 93.2866 37.9188C93.6641 37.9188 93.9599 37.823 94.1793 37.6314C94.3986 37.4398 94.5108 37.1978 94.5108 36.9053C94.5108 36.6683 94.4496 36.4817 94.3272 36.3355C94.2048 36.1893 94.0517 36.0834 93.8732 36.0128C93.6947 35.9422 93.4447 35.8666 93.1285 35.7809C92.7561 35.68 92.4653 35.5842 92.246 35.4884C92.0267 35.3926 91.843 35.2464 91.69 35.0497C91.537 34.8531 91.4605 34.5808 91.4605 34.2429C91.4605 33.9605 91.537 33.7084 91.6849 33.4866C91.8328 33.2647 92.042 33.0882 92.3123 32.9622C92.5827 32.8361 92.8938 32.7756 93.2407 32.7756C93.7559 32.7756 94.1691 32.9016 94.4853 33.1487C94.8016 33.3958 94.9801 33.7185 95.0311 34.1118H94.4292C94.3935 33.8849 94.266 33.6883 94.0568 33.5118C93.8426 33.3353 93.557 33.2496 93.1999 33.2496C92.8683 33.2496 92.5878 33.3353 92.3633 33.5118C92.1389 33.6883 92.0318 33.9252 92.0318 34.2328C92.0318 34.4648 92.093 34.6514 92.2154 34.7925C92.3378 34.9337 92.4908 35.0396 92.6745 35.1153C92.8581 35.1909 93.103 35.2665 93.4192 35.3522C93.7814 35.4531 94.0722 35.5489 94.2915 35.6447C94.5159 35.7405 94.6996 35.8918 94.8577 36.0884C95.0107 36.2851 95.0872 36.5523 95.0872 36.8902C95.0872 37.1473 95.0158 37.3894 94.8781 37.6213C94.7404 37.8533 94.5363 38.0398 94.266 38.181C93.9956 38.3222 93.6743 38.3928 93.2968 38.3928C92.9193 38.3928 92.6082 38.3323 92.3327 38.2062L92.3276 38.1962Z" fill="white"/>
<path d="M98.5459 38.1205C98.2195 37.939 97.9644 37.6818 97.7757 37.349C97.5869 37.0162 97.4951 36.628 97.4951 36.1842C97.4951 35.7405 97.592 35.3522 97.7808 35.0194C97.9695 34.6866 98.2297 34.4295 98.5612 34.248C98.8877 34.0664 99.26 33.9757 99.6681 33.9757C100.076 33.9757 100.443 34.0664 100.775 34.248C101.107 34.4295 101.367 34.6866 101.555 35.0194C101.744 35.3522 101.836 35.7405 101.836 36.1842C101.836 36.628 101.739 37.0112 101.55 37.349C101.362 37.6869 101.096 37.944 100.765 38.1205C100.433 38.297 100.061 38.3928 99.6528 38.3928C99.2447 38.3928 98.8775 38.3021 98.551 38.1205H98.5459ZM100.438 37.7222C100.683 37.5961 100.882 37.3995 101.03 37.1423C101.178 36.8851 101.255 36.5624 101.255 36.1893C101.255 35.8161 101.178 35.4934 101.03 35.2363C100.882 34.9791 100.683 34.7825 100.443 34.6564C100.199 34.5303 99.9334 34.4648 99.6477 34.4648C99.3621 34.4648 99.0968 34.5303 98.852 34.6564C98.6071 34.7825 98.4133 34.9791 98.2654 35.2363C98.1174 35.4934 98.046 35.8161 98.046 36.1893C98.046 36.5624 98.1174 36.8851 98.2654 37.1423C98.4133 37.3995 98.6071 37.5961 98.8469 37.7222C99.0866 37.8482 99.3519 37.9138 99.6375 37.9138C99.9232 37.9138 100.188 37.8482 100.433 37.7222H100.438Z" fill="white"/>
<path d="M106.146 34.5051H105.136V38.3323H104.58V34.5051H103.979V34.0412H104.58V33.7437C104.58 33.2798 104.703 32.9369 104.943 32.7151C105.182 32.4932 105.575 32.3873 106.116 32.3873V32.8613C105.754 32.8613 105.504 32.9268 105.356 33.063C105.208 33.1991 105.136 33.426 105.136 33.7488V34.0463H106.146V34.5102V34.5051Z" fill="white"/>
<path d="M109.334 34.5052V37.1675C109.334 37.4297 109.385 37.6113 109.487 37.7121C109.589 37.813 109.768 37.8634 110.018 37.8634H110.528V38.3374H109.931C109.538 38.3374 109.248 38.2466 109.059 38.0651C108.87 37.8836 108.773 37.5861 108.773 37.1726V34.5102H108.171V34.0463H108.773V32.9723H109.34V34.0463H110.533V34.5102H109.34L109.334 34.5052Z" fill="white"/>
<path d="M118.751 34.0413L117.394 38.3323H116.838L115.639 34.7321L114.44 38.3323H113.874L112.512 34.0413H113.078L114.16 37.7726L115.374 34.0413H115.93L117.129 37.7827L118.2 34.0413H118.751Z" fill="white"/>
<path d="M121.108 35.0194C121.286 34.6866 121.531 34.4295 121.847 34.248C122.163 34.0664 122.521 33.9757 122.918 33.9757C123.316 33.9757 123.689 34.0715 123.99 34.258C124.291 34.4446 124.505 34.6867 124.637 34.9791V34.0362H125.193V38.3273H124.637V37.3743C124.5 37.6667 124.28 37.9087 123.979 38.1004C123.678 38.292 123.321 38.3878 122.908 38.3878C122.515 38.3878 122.163 38.297 121.847 38.1104C121.531 37.9289 121.286 37.6667 121.108 37.3339C120.929 37.0011 120.842 36.6128 120.842 36.1691C120.842 35.7254 120.929 35.3422 121.108 35.0094V35.0194ZM124.418 35.2716C124.275 35.0094 124.081 34.8077 123.831 34.6665C123.587 34.5253 123.311 34.4547 123.015 34.4547C122.719 34.4547 122.434 34.5253 122.189 34.6614C121.944 34.7976 121.755 34.9942 121.613 35.2564C121.475 35.5136 121.403 35.8212 121.403 36.1792C121.403 36.5372 121.475 36.8398 121.613 37.102C121.755 37.3642 121.944 37.5659 122.189 37.707C122.434 37.8482 122.709 37.9138 123.015 37.9138C123.321 37.9138 123.582 37.8432 123.831 37.702C124.076 37.5608 124.27 37.3591 124.418 37.0969C124.561 36.8347 124.632 36.5322 124.632 36.1842C124.632 35.8363 124.561 35.5338 124.418 35.2716Z" fill="white"/>
<path d="M129.167 34.1824C129.417 34.0362 129.728 33.9605 130.095 33.9605V34.5354H129.942C129.539 34.5354 129.218 34.6413 128.973 34.8581C128.728 35.0749 128.606 35.4329 128.606 35.9321V38.3273H128.05V34.0362H128.606V34.7976C128.728 34.5303 128.917 34.3236 129.167 34.1774V34.1824Z" fill="white"/>
<path d="M136.426 36.396H132.824C132.84 36.7187 132.921 36.9961 133.064 37.228C133.207 37.46 133.396 37.6314 133.63 37.7524C133.865 37.8684 134.12 37.9289 134.395 37.9289C134.758 37.9289 135.059 37.8432 135.303 37.6718C135.548 37.5003 135.711 37.2633 135.793 36.9709H136.38C136.273 37.3894 136.048 37.7323 135.701 37.9945C135.354 38.2567 134.921 38.3928 134.395 38.3928C133.987 38.3928 133.62 38.3021 133.299 38.1205C132.977 37.939 132.722 37.6818 132.539 37.349C132.355 37.0162 132.263 36.628 132.263 36.1842C132.263 35.7405 132.355 35.3472 132.534 35.0144C132.712 34.6816 132.967 34.4244 133.288 34.2429C133.61 34.0614 133.982 33.9757 134.395 33.9757C134.809 33.9757 135.171 34.0664 135.482 34.2429C135.793 34.4194 136.033 34.6614 136.196 34.964C136.364 35.2665 136.446 35.5993 136.446 35.9674C136.446 36.154 136.441 36.3002 136.431 36.4011L136.426 36.396ZM135.686 35.1304C135.548 34.9035 135.365 34.7371 135.135 34.6211C134.9 34.5051 134.645 34.4497 134.37 34.4497C133.957 34.4497 133.605 34.5808 133.314 34.843C133.023 35.1052 132.86 35.4733 132.829 35.9523H135.88C135.885 35.6346 135.819 35.3623 135.686 35.1354V35.1304Z" fill="white"/>
<path d="M143.536 38.1962C143.261 38.0701 143.041 37.8936 142.878 37.6718C142.72 37.4448 142.633 37.1927 142.623 36.9154H143.21C143.235 37.1826 143.358 37.4146 143.567 37.6163C143.776 37.818 144.087 37.9188 144.495 37.9188C144.873 37.9188 145.168 37.823 145.388 37.6314C145.607 37.4398 145.719 37.1978 145.719 36.9053C145.719 36.6683 145.658 36.4817 145.536 36.3355C145.413 36.1893 145.26 36.0834 145.082 36.0128C144.903 35.9422 144.653 35.8666 144.337 35.7809C143.965 35.68 143.674 35.5842 143.455 35.4884C143.235 35.3926 143.052 35.2464 142.899 35.0497C142.745 34.8531 142.669 34.5808 142.669 34.2429C142.669 33.9605 142.745 33.7084 142.893 33.4866C143.041 33.2647 143.25 33.0882 143.521 32.9622C143.791 32.8361 144.102 32.7756 144.449 32.7756C144.964 32.7756 145.378 32.9016 145.694 33.1487C146.01 33.3958 146.189 33.7185 146.24 34.1118H145.638C145.602 33.8849 145.474 33.6883 145.265 33.5118C145.051 33.3353 144.765 33.2496 144.408 33.2496C144.077 33.2496 143.796 33.3353 143.572 33.5118C143.347 33.6883 143.24 33.9252 143.24 34.2328C143.24 34.4648 143.301 34.6514 143.424 34.7925C143.546 34.9337 143.699 35.0396 143.883 35.1153C144.067 35.1909 144.311 35.2665 144.628 35.3522C144.99 35.4531 145.281 35.5489 145.5 35.6447C145.724 35.7405 145.908 35.8918 146.066 36.0884C146.219 36.2851 146.296 36.5523 146.296 36.8902C146.296 37.1473 146.224 37.3894 146.087 37.6213C145.949 37.8533 145.745 38.0398 145.474 38.181C145.204 38.3222 144.883 38.3928 144.505 38.3928C144.128 38.3928 143.817 38.3323 143.541 38.2062L143.536 38.1962Z" fill="white"/>
<path d="M149.754 38.1205C149.428 37.939 149.173 37.6818 148.984 37.349C148.795 37.0162 148.704 36.628 148.704 36.1842C148.704 35.7405 148.801 35.3522 148.989 35.0194C149.178 34.6866 149.438 34.4295 149.77 34.248C150.096 34.0664 150.469 33.9757 150.877 33.9757C151.285 33.9757 151.652 34.0664 151.984 34.248C152.315 34.4295 152.575 34.6866 152.764 35.0194C152.953 35.3522 153.045 35.7405 153.045 36.1842C153.045 36.628 152.948 37.0112 152.759 37.349C152.57 37.6869 152.305 37.944 151.973 38.1205C151.642 38.297 151.269 38.3928 150.861 38.3928C150.453 38.3928 150.086 38.3021 149.76 38.1205H149.754ZM151.647 37.7222C151.892 37.5961 152.091 37.3995 152.239 37.1423C152.387 36.8851 152.463 36.5624 152.463 36.1893C152.463 35.8161 152.387 35.4934 152.239 35.2363C152.091 34.9791 151.892 34.7825 151.652 34.6564C151.407 34.5303 151.142 34.4648 150.856 34.4648C150.571 34.4648 150.305 34.5303 150.06 34.6564C149.816 34.7825 149.622 34.9791 149.474 35.2363C149.326 35.4934 149.255 35.8161 149.255 36.1893C149.255 36.5624 149.326 36.8851 149.474 37.1423C149.622 37.3995 149.816 37.5961 150.055 37.7222C150.295 37.8482 150.56 37.9138 150.846 37.9138C151.132 37.9138 151.397 37.8482 151.642 37.7222H151.647Z" fill="white"/>
<path d="M156.202 32.5185V38.3324H155.646V32.5185H156.202Z" fill="white"/>
<path d="M162.813 34.0413V38.3323H162.257V37.576C162.129 37.8432 161.936 38.0449 161.67 38.1912C161.405 38.3323 161.109 38.4029 160.778 38.4029C160.257 38.4029 159.834 38.2466 159.507 37.929C159.181 37.6113 159.013 37.1524 159.013 36.5524V34.0463H159.564V36.4919C159.564 36.9558 159.681 37.3138 159.916 37.5609C160.15 37.8079 160.472 37.929 160.88 37.929C161.288 37.929 161.629 37.7979 161.879 37.5357C162.129 37.2734 162.252 36.8902 162.252 36.3809V34.0463H162.808L162.813 34.0413Z" fill="white"/>
<path d="M166.399 34.5052V37.1675C166.399 37.4297 166.45 37.6113 166.552 37.7121C166.654 37.813 166.832 37.8634 167.082 37.8634H167.592V38.3374H166.996C166.603 38.3374 166.312 38.2466 166.123 38.0651C165.935 37.8836 165.838 37.5861 165.838 37.1726V34.5102H165.236V34.0463H165.838V32.9723H166.404V34.0463H167.598V34.5102H166.404L166.399 34.5052Z" fill="white"/>
<path d="M170.087 33.1135C170.005 33.0328 169.97 32.937 169.97 32.821C169.97 32.705 170.011 32.6092 170.087 32.5336C170.169 32.4579 170.26 32.4176 170.373 32.4176C170.485 32.4176 170.582 32.4579 170.658 32.5336C170.74 32.6092 170.776 32.705 170.776 32.821C170.776 32.937 170.735 33.0328 170.658 33.1135C170.577 33.1941 170.485 33.2294 170.373 33.2294C170.26 33.2294 170.164 33.1891 170.087 33.1135ZM170.653 34.0413V38.3323H170.097V34.0413H170.653Z" fill="white"/>
<path d="M174.305 38.1205C173.979 37.939 173.724 37.6818 173.535 37.349C173.346 37.0162 173.254 36.628 173.254 36.1842C173.254 35.7405 173.351 35.3522 173.54 35.0194C173.729 34.6866 173.989 34.4295 174.32 34.248C174.647 34.0664 175.019 33.9757 175.427 33.9757C175.835 33.9757 176.203 34.0664 176.534 34.248C176.866 34.4295 177.126 34.6866 177.315 35.0194C177.503 35.3522 177.595 35.7405 177.595 36.1842C177.595 36.628 177.498 37.0112 177.31 37.349C177.121 37.6869 176.856 37.944 176.524 38.1205C176.193 38.297 175.82 38.3928 175.412 38.3928C175.004 38.3928 174.637 38.3021 174.31 38.1205H174.305ZM176.198 37.7222C176.443 37.5961 176.641 37.3995 176.789 37.1423C176.937 36.8851 177.014 36.5624 177.014 36.1893C177.014 35.8161 176.937 35.4934 176.789 35.2363C176.641 34.9791 176.442 34.7825 176.203 34.6564C175.958 34.5303 175.693 34.4648 175.407 34.4648C175.121 34.4648 174.856 34.5303 174.611 34.6564C174.366 34.7825 174.173 34.9791 174.025 35.2363C173.877 35.4934 173.805 35.8161 173.805 36.1893C173.805 36.5624 173.877 36.8851 174.025 37.1423C174.173 37.3995 174.366 37.5961 174.606 37.7222C174.846 37.8482 175.111 37.9138 175.397 37.9138C175.682 37.9138 175.948 37.8482 176.193 37.7222H176.198Z" fill="white"/>
<path d="M183.502 34.4396C183.829 34.7573 183.997 35.2161 183.997 35.8162V38.3323H183.446V35.8817C183.446 35.4178 183.329 35.0598 183.094 34.8127C182.86 34.5657 182.538 34.4446 182.13 34.4446C181.722 34.4446 181.38 34.5758 181.131 34.838C180.881 35.1002 180.758 35.4834 180.758 35.9927V38.3323H180.202V34.0413H180.758V34.7724C180.896 34.5102 181.095 34.3085 181.355 34.1724C181.615 34.0312 181.906 33.9656 182.237 33.9656C182.758 33.9656 183.181 34.1219 183.508 34.4396H183.502Z" fill="white"/>
<path d="M187.093 38.0499C186.777 37.823 186.604 37.5104 186.563 37.1171H187.134C187.16 37.3591 187.277 37.5507 187.481 37.702C187.685 37.8533 187.961 37.9239 188.302 37.9239C188.603 37.9239 188.843 37.8533 189.011 37.7121C189.18 37.5709 189.272 37.3944 189.272 37.1877C189.272 37.0415 189.226 36.9204 189.129 36.8246C189.032 36.7288 188.915 36.6582 188.767 36.6028C188.619 36.5473 188.425 36.4868 188.175 36.4263C187.854 36.3406 187.588 36.2599 187.389 36.1742C187.19 36.0884 187.017 35.9674 186.879 35.801C186.742 35.6346 186.67 35.4128 186.67 35.1354C186.67 34.9236 186.731 34.732 186.859 34.5555C186.986 34.3791 187.165 34.2379 187.4 34.132C187.634 34.0261 187.899 33.9757 188.195 33.9757C188.659 33.9757 189.037 34.0916 189.323 34.3236C189.608 34.5555 189.761 34.8783 189.782 35.2867H189.226C189.21 35.0346 189.108 34.8329 188.93 34.6766C188.746 34.5202 188.496 34.4446 188.18 34.4446C187.899 34.4446 187.67 34.5102 187.496 34.6413C187.323 34.7724 187.236 34.9337 187.236 35.1304C187.236 35.2968 187.287 35.4329 187.389 35.5439C187.491 35.6497 187.619 35.7355 187.777 35.796C187.93 35.8565 188.139 35.922 188.399 35.9977C188.71 36.0834 188.96 36.1641 189.144 36.2397C189.328 36.3153 189.491 36.4313 189.624 36.5876C189.756 36.7389 189.823 36.9406 189.828 37.1927C189.828 37.4247 189.766 37.6264 189.639 37.8079C189.511 37.9894 189.333 38.1306 189.108 38.2365C188.879 38.3424 188.619 38.3928 188.323 38.3928C187.823 38.3928 187.42 38.2768 187.104 38.0499H187.093Z" fill="white"/>
</g>
<defs>
<clipPath id="clip0_111_4395">
<rect width="194" height="44" fill="white"/>
</clipPath>
</defs>
</svg>
